<svg height="512pt" viewBox="-20 0 512 512" width="512pt" xmlns="http://www.w3.org/2000/svg"><path d="m428.867188 390h-385.734376c-18.296874 0-33.132812-14.835938-33.132812-33.132812v-306.867188h452v306.867188c0 18.296874-14.835938 33.132812-33.132812 33.132812zm0 0" fill="#b5bcc9"/><path d="m10 330.871094v25.996094c0 18.296874 14.835938 33.132812 33.132812 33.132812h385.734376c18.296874 0 33.132812-14.835938 33.132812-33.132812v-25.996094zm0 0" fill="#91def5"/><path d="m462 10h-185.882812c-22.136719 0-40.066407 17.980469-40 40.113281l.011718 3.886719v276.871094c-.070312-24.28125 19.589844-44 43.871094-44h182zm0 0" fill="#e5ecec"/><path d="m332 502h-192c0-26.511719 21.488281-48 48-48h96c26.511719 0 48 21.488281 48 48zm0 0" fill="#91def5"/><path d="m196 390h80v64h-80zm0 0" fill="#00ccf2"/><path d="m10.253906 10h182c24.28125 0 43.941406 19.71875 43.875 44v276.871094c.066406-24.28125-19.59375-44-43.875-44h-182zm0 0" fill="#fff"/><path d="m236 350.441406c-2.628906 0-5.210938 1.058594-7.070312 2.917969-1.859376 1.871094-2.929688 4.441406-2.929688 7.070313 0 2.640624 1.070312 5.210937 2.929688 7.082031 1.859374 1.859375 4.441406 2.917969 7.070312 2.917969s5.210938-1.058594 7.070312-2.917969c1.859376-1.871094 2.929688-4.441407 2.929688-7.082031 0-2.628907-1.070312-5.199219-2.929688-7.070313-1.859374-1.859375-4.441406-2.917969-7.070312-2.917969zm0 0"/><path d="m462 0h-182c-14.417969 0-27.96875 5.621094-38.148438 15.835938-2.113281 2.117187-4.015624 4.390624-5.722656 6.773437-1.710937-2.382813-3.613281-4.65625-5.726562-6.773437-10.179688-10.214844-23.730469-15.835938-38.148438-15.835938h-182c-5.523437 0-10 4.476562-10 10l-.253906 346.867188c0 23.78125 19.351562 43.132812 43.132812 43.132812h142.867188v44.050781c-31.058594 1.058594-56 26.640625-56 57.949219 0 5.523438 4.476562 10 10 10h192c5.523438 0 10-4.476562 10-10 0-31.3125-24.941406-56.890625-56-57.949219v-44.050781h142.867188c23.78125 0 43.132812-19.351562 43.132812-43.132812v-346.867188c0-5.523438-4.476562-10-10-10zm-442 296.871094h172.253906c9.066406 0 17.585938 3.535156 23.984375 9.953125 3.980469 3.992187 6.84375 8.800781 8.433594 14.046875h-204.671875zm432 24h-204.417969c1.589844-5.246094 4.449219-10.054688 8.433594-14.046875 6.398437-6.417969 14.917969-9.953125 23.984375-9.953125h172zm-205.871094-266.898438c-.027344-9.066406 3.484375-17.597656 9.886719-24.019531 6.398437-6.417969 14.917969-9.953125 23.984375-9.953125h172v256.871094h-172c-12.484375 0-24.316406 4.214844-33.871094 11.972656zm-225.875-33.972656h172c9.066406 0 17.585938 3.535156 23.984375 9.957031 6.402344 6.417969 9.914063 14.949219 9.890625 24.042969v234.84375c-9.558594-7.757812-21.390625-11.976562-33.875-11.976562h-172zm300.410156 472h-169.328124c4.398437-16.117188 19.171874-28 36.664062-28h96c17.492188 0 32.265625 11.882812 36.664062 28zm-54.664062-48h-60v-44h60zm162.867188-64h-385.734376c-12.753906 0-23.132812-10.378906-23.132812-23.132812v-15.996094h432v15.996094c0 12.753906-10.378906 23.132812-23.132812 23.132812zm0 0"/><path d="m185.3125 123.625c-.425781-.546875-.878906-1.089844-1.328125-1.636719.449219-.542969.902344-1.089843 1.328125-1.632812 15.863281-20.160157 12.375-33.3125 8.882812-39.359375-6.855468-11.875-22.308593-14.714844-40.613281-11.636719-6.488281-17.398437-16.679687-29.359375-30.390625-29.359375-13.714844 0-23.90625 11.960938-30.394531 29.359375-18.304687-3.078125-33.757813-.238281-40.613281 11.636719-6.855469 11.875-1.59375 26.675781 10.226562 40.992187-11.820312 14.316407-17.082031 29.121094-10.226562 40.996094 2.960937 5.125 10.335937 12.796875 27.960937 12.796875 3.179688 0 6.691407-.25 10.566407-.808594.691406-.097656 1.390624-.21875 2.09375-.335937 6.488281 17.390625 16.675781 29.34375 30.382812 29.34375 13.710938 0 23.898438-11.953125 30.386719-29.34375.699219.117187 1.402343.238281 2.089843.335937 3.878907.558594 7.390626.808594 10.566407.808594 17.625 0 25.003906-7.671875 27.960937-12.796875 3.496094-6.046875 6.984375-19.203125-8.878906-39.359375zm-18.691406-35.390625c5.722656 0 9.320312 1.144531 10.253906 2.757813.984375 1.707031-.082031 7.722656-7.023438 16.660156-2.878906-2.5-5.933593-4.953125-9.140624-7.347656-.46875-3.914063-1.0625-7.753907-1.785157-11.492188 2.863281-.390625 5.453125-.578125 7.695313-.578125zm-34.03125 50.035156c-3.105469 1.792969-6.25 3.46875-9.398438 5.027344-3.148437-1.558594-6.292968-3.234375-9.398437-5.027344-3.21875-1.859375-6.238281-3.734375-9.074219-5.617187-.210938-3.394532-.324219-6.949219-.324219-10.664063 0-3.710937.113281-7.265625.324219-10.664062 2.835938-1.878907 5.855469-3.753907 9.074219-5.613281 3.21875-1.859376 6.347656-3.519532 9.398437-5.039063 3.046875 1.519531 6.175782 3.179687 9.398438 5.039063 3.109375 1.796874 6.140625 3.6875 9.070312 5.640624.210938 3.386719.324219 6.933594.324219 10.636719 0 3.707031-.113281 7.25-.324219 10.640625-2.929687 1.953125-5.960937 3.839844-9.070312 5.640625zm-9.398438-78.269531c2.597656 0 6.984375 4.941406 10.867188 14.457031-3.605469 1.242188-7.238282 2.65625-10.867188 4.210938-3.632812-1.554688-7.265625-2.96875-10.871094-4.210938 3.882813-9.515625 8.273438-14.457031 10.871094-14.457031zm-53.683594 30.996094c.929688-1.617188 4.527344-2.761719 10.25-2.761719 2.246094 0 4.832032.1875 7.699219.582031-.726562 3.742188-1.320312 7.589844-1.789062 11.511719-3.160157 2.363281-6.199219 4.808594-9.078125 7.304687-6.300782-8.117187-8.382813-14.386718-7.082032-16.636718zm0 61.988281c-1.300781-2.25.785157-8.519531 7.082032-16.636719 2.878906 2.496094 5.917968 4.9375 9.078125 7.304688.472656 3.941406 1.070312 7.8125 1.800781 11.574218-11.226562 1.550782-16.976562-.535156-17.960938-2.242187zm53.683594 30.996094c-2.597656 0-6.980468-4.933594-10.859375-14.429688 3.578125-1.238281 7.207031-2.648437 10.859375-4.214843 3.652344 1.566406 7.28125 2.976562 10.855469 4.214843-3.878906 9.496094-8.261719 14.429688-10.855469 14.429688zm53.683594-30.996094c-.984375 1.707031-6.734375 3.792969-17.960938 2.242187.726563-3.753906 1.324219-7.617187 1.796876-11.550781 3.207031-2.398437 6.261718-4.851562 9.140624-7.351562 6.941407 8.941406 8.007813 14.953125 7.023438 16.660156zm0 0"/><path d="m161.667969 226h-76.953125c-5.523438 0-10 4.476562-10 10s4.476562 10 10 10h76.953125c5.523437 0 10-4.476562 10-10s-4.480469-10-10-10zm0 0"/><path d="m281.371094 84.925781h135.382812c5.523438 0 10-4.476562 10-10 0-5.523437-4.476562-10-10-10h-135.382812c-5.523438 0-10 4.476563-10 10 0 5.523438 4.476562 10 10 10zm0 0"/><path d="m281.371094 133.933594h35.691406c5.523438 0 10-4.480469 10-10 0-5.523438-4.476562-10-10-10h-35.691406c-5.523438 0-10 4.476562-10 10 0 5.519531 4.476562 10 10 10zm0 0"/><path d="m416.753906 113.933594h-35.691406c-5.523438 0-10 4.476562-10 10 0 5.519531 4.476562 10 10 10h35.691406c5.523438 0 10-4.480469 10-10 0-5.523438-4.476562-10-10-10zm0 0"/><path d="m416.753906 162.9375h-95.382812c-5.523438 0-10 4.476562-10 10s4.476562 10 10 10h95.382812c5.523438 0 10-4.476562 10-10s-4.476562-10-10-10zm0 0"/><path d="m281.371094 182.941406c2.628906 0 5.207031-1.070312 7.070312-2.929687 1.859375-1.863281 2.929688-4.441407 2.929688-7.070313 0-2.632812-1.070313-5.210937-2.929688-7.070312-1.863281-1.859375-4.441406-2.929688-7.070312-2.929688-2.632813 0-5.210938 1.070313-7.070313 2.929688s-2.929687 4.4375-2.929687 7.070312c0 2.628906 1.070312 5.207032 2.929687 7.070313 1.859375 1.859375 4.4375 2.929687 7.070313 2.929687zm0 0"/><path d="m416.753906 211.945312h-135.382812c-5.523438 0-10 4.476563-10 10 0 5.523438 4.476562 10 10 10h135.382812c5.523438 0 10-4.476562 10-10 0-5.523437-4.476562-10-10-10zm0 0"/></svg>